<?xml version="1.0" encoding="UTF-8"?><svg id="Layer_13" xmlns="http://www.w3.org/2000/svg" viewBox="0 0 1000 1000"><defs><style>.cls-1{fill:#8bc63f;}</style></defs><path class="cls-1" d="M502.13,780.99l-12.41-9.42c-4.6-3.49-112.94-85.8-148.85-119.36-68.47-63.98-107.34-139.76-108.96-142.95l-3.46-6.81,36.91-154.4c-23.31-39.09-17.63-88.31,14.52-113.55,15.24-11.95,34.68-17.16,54.68-14.66,19.26,2.4,37.84,11.79,52.59,26.28,44.54-10.81,108.5-25.79,109.21-25.96l4.87-1.14,112.62,27.87c14.73-14.86,33.42-24.54,52.9-27.11,20.24-2.69,39.88,2.5,55.29,14.59,32.2,25.27,37.85,74.59,14.43,113.7l35.06,156.06-5.1,7.46c-3.13,4.58-77,112.52-104.32,140.61-35.78,36.8-142.92,116.17-147.46,119.53l-12.53,9.27ZM272.53,496.95c10.64,19.06,44.89,76.42,96.74,124.87,27.44,25.64,103.19,84.15,133.16,107.12,29.57-22.22,103.28-78.38,129.88-105.74,19.12-19.67,70.72-92.87,94.69-127.65l-35.11-156.28,5.62-7.63c16.11-21.87,15.59-51.44-1.13-64.57-8.36-6.56-17.76-6.94-24.16-6.07-12.84,1.69-25.36,9.57-34.36,21.59l-8.26,11.03-128.62-31.83c-17.6,4.13-78.77,18.52-116.06,27.68l-13.14,3.23-8.27-10.72c-9.03-11.69-21.45-19.3-34.08-20.88-6.32-.81-15.6-.37-23.87,6.11-16.72,13.12-17.24,42.69-1.13,64.57l5.73,7.77-37.63,157.4Z"/><polygon class="cls-1" points="544.42 603.86 463.58 603.86 416.76 542.84 434.84 407.33 461.93 410.94 445.37 535.2 477.07 576.52 530.1 576.52 558.53 535.52 542.98 410.59 570.12 407.22 586.94 542.51 544.42 603.86"/><path class="cls-1" d="M457.95,516.95h88.68l-25.47,40.29h-39.16l-24.06-40.29Z"/><polygon class="cls-1" points="539.93 411.66 572.46 385.27 616.36 377.12 647.03 391.19 616.7 421.21 558.6 427.72 562.16 416.81 539.93 411.66"/><polygon class="cls-1" points="465.74 411.66 433.21 385.27 389.3 377.12 358.68 391.33 388.96 421.21 447.07 427.72 443.5 416.81 465.74 411.66"/></svg>