<?xml version="1.0" encoding="UTF-8"?><svg id="val-väri-vaaka" xmlns="http://www.w3.org/2000/svg" viewBox="0 0 957.35 559.91"><defs><style>.cls-1{fill:#8bc63f;}.cls-2{fill:#fff;}.cls-3{fill:#89c540;}</style></defs><path class="cls-1" d="M242.82,343.16l-1.09-2.01c-.2-.36-.33-.72-.43-1.09-1.24-1.21-2.48-2.41-3.68-3.66h-21.91c-2.01,0-3.65,1.63-3.65,3.65s1.63,3.65,3.65,3.65h27.46c-.12-.17-.24-.35-.35-.54Z"/><rect class="cls-1" x="183.85" y="335.99" width="18.57" height="7.71" rx="2.39" ry="2.39"/><rect class="cls-1" x="165.52" y="335.99" width="9.35" height="7.71" rx="2.39" ry="2.39"/><path class="cls-1" d="M218.76,316.06c-.06-.06-.1-.12-.16-.18h-35.97c-2.01,0-3.65,1.63-3.65,3.65h0c0,2.01,1.63,3.65,3.65,3.65h45.85c-3.64-1.79-6.89-4.1-9.73-7.11Z"/><rect class="cls-1" x="150.78" y="315.45" width="18.57" height="7.71" rx="2.39" ry="2.39"/><rect class="cls-1" x="132.45" y="315.45" width="9.35" height="7.71" rx="2.39" ry="2.39"/><rect class="cls-1" x="147.1" y="291.95" width="79.22" height="7.29" rx="2.26" ry="2.26"/><rect class="cls-1" x="118.88" y="291.53" width="18.57" height="7.71" rx="2.39" ry="2.39"/><rect class="cls-1" x="100.55" y="291.53" width="9.35" height="7.71" rx="2.39" ry="2.39"/><polygon class="cls-3" points="253.15 303.94 253.15 344.55 210.21 310.81 187.72 281.2 201.54 240.54 202.4 237.95 215.69 251.47 216.62 252.36 238.13 258.57 235.95 291.2 245.52 303.64 253.15 303.94"/><path class="cls-2" d="M253.21,352.84l-3.22-2.44c-1.19-.9-29.29-22.26-38.61-30.96-17.76-16.59-27.84-36.25-28.26-37.08l-.9-1.77,9.57-40.05c-6.05-10.14-4.57-22.91,3.77-29.45,3.95-3.1,8.99-4.45,14.18-3.8,5,.62,9.81,3.06,13.64,6.82,11.55-2.8,28.14-6.69,28.33-6.73l1.26-.3,29.21,7.23c3.82-3.85,8.67-6.36,13.72-7.03,5.25-.7,10.35.65,14.34,3.78,8.35,6.56,9.82,19.35,3.74,29.49l9.09,40.48-1.32,1.94c-.81,1.19-19.97,29.18-27.06,36.47-9.28,9.55-37.07,30.13-38.25,31l-3.25,2.4ZM193.66,279.17c2.76,4.94,11.64,19.82,25.09,32.39,7.12,6.65,26.77,21.83,34.54,27.79,7.67-5.76,26.79-20.33,33.69-27.43,4.96-5.1,18.34-24.09,24.56-33.11l-9.11-40.54,1.46-1.98c4.18-5.67,4.04-13.34-.29-16.75-2.17-1.7-4.61-1.8-6.27-1.58-3.33.44-6.58,2.48-8.91,5.6l-2.14,2.86-33.36-8.26c-4.56,1.07-20.43,4.8-30.1,7.18l-3.41.84-2.14-2.78c-2.34-3.03-5.56-5.01-8.84-5.41-1.64-.21-4.05-.1-6.19,1.58-4.34,3.4-4.47,11.07-.29,16.75l1.49,2.02-9.76,40.83Z"/><polygon class="cls-2" points="264.18 306.9 243.21 306.9 231.07 291.07 235.76 255.92 242.79 256.86 238.49 289.09 246.71 299.8 260.47 299.8 267.84 289.17 263.81 256.76 270.85 255.89 275.21 290.98 264.18 306.9"/><path class="cls-2" d="M241.75,284.35h23l-6.61,10.45h-10.16l-6.24-10.45Z"/><polygon class="cls-2" points="263.02 257.04 271.45 250.2 282.84 248.08 290.8 251.73 282.93 259.52 267.86 261.21 268.78 258.38 263.02 257.04"/><polygon class="cls-2" points="243.77 257.04 235.33 250.2 223.95 248.08 216 251.77 223.86 259.52 238.93 261.21 238 258.38 243.77 257.04"/><path class="cls-2" d="M357.92,322.39v-86.1h14.15v86.1h-14.15ZM367.64,322.39v-12.3h24.72c4.35,0,7.71-1.35,10.09-4.06,2.38-2.71,3.57-5.82,3.57-9.35,0-2.38-.54-4.59-1.6-6.64-1.07-2.05-2.62-3.69-4.67-4.92-2.05-1.23-4.51-1.85-7.38-1.85h-24.72v-12.3h22.63c3.69,0,6.64-.94,8.86-2.83,2.21-1.88,3.32-4.67,3.32-8.36s-1.11-6.48-3.32-8.36c-2.21-1.89-5.17-2.83-8.86-2.83h-22.63v-12.3h23c5.82,0,10.66,1.07,14.51,3.2,3.85,2.13,6.72,4.88,8.61,8.24,1.88,3.36,2.83,6.97,2.83,10.82,0,4.51-1.25,8.49-3.75,11.93-2.5,3.44-6.17,6.23-11.01,8.36l1.11-4.43c5.41,2.21,9.63,5.33,12.67,9.35,3.03,4.02,4.55,8.73,4.55,14.15,0,4.43-1.09,8.49-3.26,12.18-2.17,3.69-5.37,6.66-9.59,8.92-4.22,2.26-9.41,3.38-15.56,3.38h-24.11Z"/><path class="cls-2" d="M432.58,322.39v-59.04h13.53v59.04h-13.53ZM446.11,289.55l-4.67-2.34c0-7.46,1.66-13.51,4.98-18.14,3.32-4.63,8.34-6.95,15.07-6.95,2.95,0,5.62.53,8,1.6,2.38,1.07,4.59,2.79,6.64,5.17l-8.86,9.1c-1.07-1.15-2.26-1.97-3.57-2.46-1.31-.49-2.83-.74-4.55-.74-3.77,0-6.89,1.19-9.35,3.57-2.46,2.38-3.69,6.11-3.69,11.19Z"/><path class="cls-2" d="M505.64,323.62c-5.33,0-10.15-1.35-14.45-4.06s-7.71-6.38-10.21-11.01c-2.5-4.63-3.75-9.82-3.75-15.56s1.25-11.05,3.75-15.68c2.5-4.63,5.9-8.32,10.21-11.07,4.3-2.75,9.12-4.12,14.45-4.12,4.51,0,8.51.96,11.99,2.89,3.48,1.93,6.25,4.57,8.3,7.93,2.05,3.36,3.07,7.18,3.07,11.44v16.97c0,4.26-1,8.08-3.01,11.44-2.01,3.36-4.78,6.01-8.3,7.93-3.53,1.93-7.55,2.89-12.05,2.89ZM507.85,310.83c5,0,9.04-1.68,12.12-5.04,3.08-3.36,4.61-7.67,4.61-12.91,0-3.53-.7-6.64-2.09-9.35-1.4-2.71-3.34-4.82-5.84-6.33-2.5-1.52-5.43-2.28-8.79-2.28s-6.17.76-8.67,2.28c-2.5,1.52-4.47,3.63-5.9,6.33-1.44,2.71-2.15,5.82-2.15,9.35s.72,6.64,2.15,9.35c1.43,2.71,3.4,4.82,5.9,6.33,2.5,1.52,5.39,2.28,8.67,2.28ZM523.72,322.39v-15.87l2.34-14.39-2.34-14.27v-14.51h13.53v59.04h-13.53Z"/><path class="cls-2" d="M572.18,322.39l-26.94-59.04h15.01l20.54,48.09h-8.86l20.66-48.09h14.39l-26.94,59.04h-7.87Z"/><path class="cls-2" d="M642.41,323.62c-5.9,0-11.21-1.33-15.93-4-4.72-2.66-8.45-6.33-11.19-11.01-2.75-4.67-4.12-9.92-4.12-15.74s1.35-11.05,4.06-15.68c2.71-4.63,6.38-8.3,11.01-11.01,4.63-2.71,9.78-4.06,15.44-4.06s10.35,1.27,14.58,3.81c4.22,2.54,7.54,6.03,9.96,10.46,2.42,4.43,3.63,9.47,3.63,15.13,0,.98-.06,1.99-.18,3.01-.12,1.03-.31,2.15-.55,3.38h-48.46v-11.07h41.45l-5.04,4.43c-.17-3.61-.86-6.64-2.09-9.1-1.23-2.46-2.97-4.35-5.23-5.66-2.26-1.31-5.02-1.97-8.3-1.97-3.44,0-6.44.74-8.98,2.21-2.54,1.48-4.51,3.55-5.9,6.21-1.4,2.67-2.09,5.84-2.09,9.53s.74,6.93,2.21,9.72c1.48,2.79,3.57,4.94,6.27,6.46,2.71,1.52,5.82,2.28,9.35,2.28,3.03,0,5.84-.53,8.43-1.6,2.58-1.06,4.78-2.62,6.58-4.67l8.61,8.73c-2.87,3.36-6.36,5.9-10.46,7.63-4.1,1.72-8.45,2.58-13.04,2.58Z"/><path class="cls-2" d="M699.98,323.62c-3.28,0-6.44-.43-9.47-1.29-3.03-.86-5.82-2.09-8.36-3.69-2.54-1.6-4.76-3.54-6.64-5.84l8.61-8.61c2.05,2.38,4.41,4.16,7.07,5.35,2.66,1.19,5.68,1.78,9.04,1.78,3.03,0,5.33-.45,6.89-1.35,1.56-.9,2.34-2.21,2.34-3.94s-.74-3.2-2.21-4.18c-1.48-.98-3.38-1.82-5.72-2.52-2.34-.7-4.8-1.41-7.38-2.15s-5.04-1.74-7.38-3.01c-2.34-1.27-4.24-3.01-5.72-5.23s-2.21-5.08-2.21-8.61c0-3.77.88-7.01,2.64-9.72,1.76-2.71,4.26-4.8,7.5-6.27,3.24-1.48,7.11-2.21,11.62-2.21,4.75,0,8.96.84,12.61,2.52,3.65,1.68,6.7,4.2,9.16,7.56l-8.61,8.61c-1.72-2.13-3.69-3.73-5.9-4.8-2.21-1.06-4.76-1.6-7.63-1.6-2.71,0-4.8.41-6.27,1.23-1.48.82-2.21,2.01-2.21,3.57,0,1.64.74,2.91,2.21,3.81,1.48.9,3.38,1.68,5.72,2.34,2.34.66,4.8,1.38,7.38,2.15,2.58.78,5.04,1.84,7.38,3.2,2.34,1.35,4.24,3.16,5.72,5.41,1.48,2.26,2.21,5.19,2.21,8.79,0,5.74-2.01,10.29-6.03,13.65-4.02,3.36-9.47,5.04-16.36,5.04Z"/><path class="cls-2" d="M760.61,323.62c-5.74,0-10.95-1.37-15.62-4.12-4.67-2.75-8.39-6.46-11.13-11.13-2.75-4.67-4.12-9.88-4.12-15.62s1.37-10.91,4.12-15.5c2.75-4.59,6.46-8.26,11.13-11.01,4.67-2.75,9.88-4.12,15.62-4.12s11.07,1.35,15.74,4.06c4.67,2.71,8.38,6.38,11.13,11.01,2.75,4.63,4.12,9.82,4.12,15.56s-1.37,10.95-4.12,15.62c-2.75,4.67-6.46,8.39-11.13,11.13-4.67,2.75-9.92,4.12-15.74,4.12ZM760.61,310.58c3.36,0,6.33-.76,8.92-2.28,2.58-1.52,4.59-3.63,6.03-6.33,1.43-2.71,2.15-5.78,2.15-9.22s-.74-6.48-2.21-9.1c-1.48-2.62-3.49-4.69-6.03-6.21-2.54-1.52-5.49-2.28-8.86-2.28s-6.21.76-8.79,2.28c-2.58,1.52-4.59,3.59-6.03,6.21-1.44,2.62-2.15,5.66-2.15,9.1s.72,6.52,2.15,9.22c1.43,2.71,3.44,4.82,6.03,6.33,2.58,1.52,5.51,2.28,8.79,2.28Z"/><path class="cls-2" d="M802.8,322.39v-59.04h13.53v59.04h-13.53ZM843.27,322.39v-34.07c0-3.94-1.25-7.17-3.75-9.72-2.5-2.54-5.72-3.81-9.66-3.81-2.63,0-4.96.57-7.01,1.72-2.05,1.15-3.65,2.75-4.8,4.8-1.15,2.05-1.72,4.39-1.72,7.01l-5.29-2.95c0-4.51.98-8.51,2.95-11.99,1.97-3.48,4.69-6.23,8.18-8.24,3.48-2.01,7.4-3.01,11.75-3.01s8.36,1.13,11.81,3.38c3.44,2.26,6.15,5.17,8.12,8.73,1.97,3.57,2.95,7.28,2.95,11.13v37.02h-13.53Z"/></svg>